<svg width="34" height="34" viewBox="0 0 34 34" fill="none" xmlns="http://www.w3.org/2000/svg">
<path d="M28.953 0H20.9834C18.2369 0 16.0024 2.23448 16.0024 4.981V9.03222C16.0024 11.4376 17.7165 13.4503 19.9872 13.9131V16.0056C19.9872 16.383 20.2004 16.7279 20.5379 16.8967C20.8749 17.0652 21.2788 17.0293 21.5811 16.8026L25.3003 14.0132H28.953C31.7069 14.0132 34.0004 11.7856 34.0004 9.03222V4.981C34.0004 2.22711 31.7064 0 28.953 0ZM30.9886 26.7524L23.9444 21.7006C23.6162 21.4652 23.1784 21.4513 22.8359 21.6653L18.8671 24.1453C18.6537 24.1862 17.7258 24.0126 15.9318 22.7138C14.4234 21.622 12.807 20.0932 11.6079 18.6245C9.83113 16.4482 9.6987 15.3509 9.79619 15.1049L12.288 11.1173C12.5021 10.7748 12.4881 10.337 12.2528 10.0088L7.20082 2.96469C7.03034 2.727 6.76402 2.57624 6.47253 2.5524C6.18131 2.52856 5.89374 2.63402 5.68686 2.84083L2.05212 6.4753C-0.00682411 8.53412 -0.579972 11.6691 0.625896 14.2764C2.23835 17.7627 4.3317 20.9842 6.84784 23.8515C10.4447 27.9504 14.7925 31.1694 19.7707 33.4191C22.3194 34.571 25.4029 33.9759 27.4427 31.9361L31.1124 28.2664C31.3192 28.0595 31.4248 27.7723 31.4009 27.4807C31.377 27.1892 31.2263 26.9229 30.9886 26.7524Z" fill="url(#paint0_linear)"/>
<path d="M20.9827 6.04346C20.4325 6.04346 19.9865 6.48949 19.9865 7.03966C19.9865 7.58983 20.4325 8.03586 20.9827 8.03586C21.5329 8.03586 21.9789 7.58983 21.9789 7.03966C21.9789 6.48949 21.5329 6.04346 20.9827 6.04346ZM24.9675 6.04346C24.4173 6.04346 23.9713 6.48949 23.9713 7.03966C23.9713 7.58983 24.4173 8.03586 24.9675 8.03586C25.5177 8.03586 25.9637 7.58983 25.9637 7.03966C25.9637 6.48949 25.5177 6.04346 24.9675 6.04346ZM28.9523 6.04346C28.4021 6.04346 27.9561 6.48949 27.9561 7.03966C27.9561 7.58983 28.4021 8.03586 28.9523 8.03586C29.5025 8.03586 29.9485 7.58983 29.9485 7.03966C29.9485 6.48949 29.5026 6.04346 28.9523 6.04346Z" fill="url(#paint1_linear)"/>
<defs>
<linearGradient id="paint0_linear" x1="17.0007" y1="34" x2="17.0007" y2="0" gradientUnits="userSpaceOnUse">
<stop stop-color="#5558FF"/>
<stop offset="1" stop-color="#00C0FF"/>
</linearGradient>
<linearGradient id="paint1_linear" x1="24.9675" y1="8.03586" x2="24.9675" y2="6.04346" gradientUnits="userSpaceOnUse">
<stop stop-color="#ADDCFF"/>
<stop offset="0.5028" stop-color="#EAF6FF"/>
<stop offset="1" stop-color="#EAF6FF"/>
</linearGradient>
</defs>
</svg>
