<svg width="186" height="37" viewBox="0 0 186 37" fill="none" xmlns="http://www.w3.org/2000/svg">
<path d="M61.5519 31.8304C61.5519 31.3694 61.534 31.0092 61.5155 30.649H62.2147L62.2511 31.3612H62.2785C62.5235 30.9464 62.9318 30.5583 63.6674 30.5583C64.2576 30.5583 64.7112 30.9185 64.9019 31.4341H64.9198C65.0557 31.1804 65.2382 31.0003 65.4193 30.8646C65.6828 30.6662 65.9642 30.559 66.3814 30.559C66.9722 30.559 67.8341 30.9382 67.8341 32.4538V35.0151H67.0532V32.5527C67.0532 31.7042 66.7355 31.209 66.1001 31.209C65.6369 31.209 65.2924 31.5419 65.1469 31.9211C65.1106 32.0378 65.0831 32.1735 65.0831 32.3175V35.0151H64.3029V32.3993C64.3029 31.7042 63.9947 31.209 63.3854 31.209C62.8955 31.209 62.5235 31.6053 62.3966 32.0029C62.3513 32.1107 62.3328 32.2541 62.3328 32.3904V35.0151H61.5519V31.8304Z" fill="#A7A9AC"/>
<path d="M75.837 33.9694C75.837 34.3474 75.8548 34.7177 75.9008 35.0145H75.1837L75.1199 34.4647H75.0931C74.8481 34.8078 74.376 35.1147 73.7495 35.1147C72.8595 35.1147 72.4065 34.492 72.4065 33.8597C72.4065 32.8045 73.3501 32.2274 75.0478 32.2357V32.1462C75.0478 31.7943 74.9476 31.1354 74.0493 31.1443C73.6314 31.1443 73.2053 31.2622 72.8965 31.4702L72.7146 30.9376C73.0777 30.7124 73.6136 30.5583 74.1667 30.5583C75.5103 30.5583 75.837 31.4703 75.837 32.3359V33.9694ZM75.065 32.788C74.1935 32.7696 73.204 32.9218 73.204 33.7703C73.204 34.2941 73.5491 34.5281 73.9485 34.5281C74.5297 34.5281 74.9017 34.1679 75.0286 33.7976C75.0554 33.7069 75.065 33.6168 75.065 33.5452V32.788Z" fill="#A7A9AC"/>
<path d="M80.7546 32.0112C80.7546 31.4969 80.7451 31.0549 80.7183 30.649H81.4175L81.4539 31.5146H81.4813C81.6803 30.9274 82.1703 30.5583 82.7062 30.5583C82.7879 30.5583 82.8517 30.5672 82.9244 30.5767V31.325C82.8428 31.3066 82.7611 31.3066 82.652 31.3066C82.0893 31.3066 81.6899 31.7226 81.5808 32.3175C81.563 32.4265 81.554 32.5616 81.554 32.6878V35.0151H80.7553V32.0112H80.7546Z" fill="#A7A9AC"/>
<path d="M88.1784 32.6518H88.1962C88.3053 32.4983 88.4502 32.3087 88.5778 32.1553L89.8761 30.6492H90.8292L89.1411 32.4438L91.0742 35.0153H90.0936L88.5867 32.9219L88.1784 33.3741V35.0153H87.3885V28.6091H88.1784V32.6518Z" fill="#A7A9AC"/>
<path d="M95.7198 32.9764C95.737 34.05 96.4184 34.4927 97.2267 34.4927C97.7984 34.4927 98.1518 34.3938 98.4421 34.2676L98.5882 34.8358C98.3062 34.9619 97.8163 35.1154 97.117 35.1154C95.7645 35.1154 94.9568 34.2225 94.9568 32.9048C94.9568 31.587 95.737 30.5591 97.0169 30.5591C98.4606 30.5591 98.8326 31.8039 98.8326 32.6074C98.8326 32.7697 98.8236 32.8858 98.8051 32.9764H95.7198ZM98.0612 32.4076C98.0708 31.9123 97.8526 31.1266 96.955 31.1266C96.1377 31.1266 95.7926 31.8572 95.7288 32.4076H98.0612Z" fill="#A7A9AC"/>
<path d="M104.414 29.6023V30.6486H105.557V31.253H104.414V33.6076C104.414 34.1491 104.568 34.456 105.012 34.456C105.23 34.456 105.357 34.4376 105.476 34.4015L105.512 35.0058C105.358 35.0604 105.113 35.1149 104.805 35.1149C104.432 35.1149 104.132 34.9887 103.942 34.7807C103.723 34.5366 103.633 34.1491 103.633 33.6348V31.253H102.952V30.6486H103.633V29.8363L104.414 29.6023Z" fill="#A7A9AC"/>
<path d="M110.974 29.4213C110.974 29.6927 110.784 29.9083 110.466 29.9083C110.176 29.9083 109.985 29.6927 109.985 29.4213C109.985 29.1499 110.184 28.926 110.484 28.926C110.775 28.926 110.974 29.1416 110.974 29.4213ZM110.086 35.0144V30.6484H110.884V35.0144H110.086Z" fill="#A7A9AC"/>
<path d="M115.838 31.8305C115.838 31.3695 115.829 31.0093 115.802 30.6491H116.509L116.555 31.3702H116.573C116.791 30.9649 117.299 30.5591 118.025 30.5591C118.633 30.5591 119.578 30.9193 119.578 32.4184V35.0159H118.779V32.4989C118.779 31.7957 118.516 31.2097 117.762 31.2097C117.244 31.2097 116.836 31.5788 116.691 32.0208C116.654 32.1197 116.636 32.2548 116.636 32.3911V35.0159H115.837V31.8305H115.838Z" fill="#A7A9AC"/>
<path d="M128.264 34.3746C128.264 35.3855 128.055 35.9911 127.638 36.3773C127.201 36.766 126.585 36.9011 126.031 36.9011C125.504 36.9011 124.923 36.7749 124.568 36.5409L124.768 35.9264C125.058 36.116 125.513 36.2796 126.058 36.2796C126.874 36.2796 127.474 35.8547 127.474 34.745V34.2668H127.456C127.22 34.6733 126.739 34.9974 126.058 34.9974C124.969 34.9974 124.188 34.0772 124.188 32.8685C124.188 31.3884 125.159 30.5583 126.176 30.5583C126.939 30.5583 127.348 30.9458 127.546 31.3066H127.564L127.592 30.649H128.299C128.273 30.9547 128.263 31.3168 128.263 31.8393V34.3746H128.264ZM127.465 32.3714C127.465 32.2363 127.455 32.119 127.42 32.0194C127.274 31.5502 126.893 31.1709 126.303 31.1709C125.541 31.1709 124.996 31.8114 124.996 32.8229C124.996 33.679 125.441 34.3924 126.294 34.3924C126.793 34.3924 127.237 34.0855 127.401 33.58C127.446 33.445 127.465 33.2915 127.465 33.1564V32.3714Z" fill="#A7A9AC"/>
<path d="M141.849 33.9694C141.849 34.3474 141.867 34.7177 141.913 35.0145H141.196L141.131 34.4647H141.104C140.859 34.8078 140.387 35.1147 139.761 35.1147C138.871 35.1147 138.418 34.492 138.418 33.8597C138.418 32.8045 139.362 32.2274 141.06 32.2357V32.1462C141.06 31.7943 140.96 31.1354 140.061 31.1443C139.644 31.1443 139.217 31.2622 138.908 31.4702L138.727 30.9376C139.09 30.7124 139.626 30.5583 140.179 30.5583C141.522 30.5583 141.85 31.4703 141.85 32.3359V33.9694H141.849ZM141.077 32.788C140.205 32.7696 139.216 32.9218 139.216 33.7703C139.216 34.2941 139.562 34.5281 139.96 34.5281C140.542 34.5281 140.913 34.1679 141.041 33.7976C141.068 33.7069 141.077 33.6168 141.077 33.5452V32.788Z" fill="#A7A9AC"/>
<path d="M150.524 34.3746C150.524 35.3855 150.315 35.9911 149.898 36.3773C149.463 36.766 148.846 36.9011 148.291 36.9011C147.764 36.9011 147.184 36.7749 146.83 36.5409L147.03 35.9264C147.319 36.116 147.773 36.2796 148.319 36.2796C149.135 36.2796 149.735 35.8547 149.735 34.745V34.2668H149.717C149.481 34.6733 149 34.9974 148.32 34.9974C147.23 34.9974 146.449 34.0772 146.449 32.8685C146.449 31.3884 147.42 30.5583 148.436 30.5583C149.199 30.5583 149.608 30.9458 149.807 31.3066H149.825L149.852 30.649H150.56C150.533 30.9547 150.523 31.3168 150.523 31.8393V34.3746H150.524ZM149.726 32.3714C149.726 32.2363 149.716 32.119 149.68 32.0194C149.535 31.5502 149.153 31.1709 148.564 31.1709C147.801 31.1709 147.257 31.8114 147.257 32.8229C147.257 33.679 147.701 34.3924 148.554 34.3924C149.054 34.3924 149.499 34.0855 149.661 33.58C149.707 33.445 149.726 33.2915 149.726 33.1564V32.3714Z" fill="#A7A9AC"/>
<path d="M155.915 32.9764C155.933 34.05 156.614 34.4927 157.42 34.4927C157.993 34.4927 158.347 34.3938 158.637 34.2676L158.782 34.8358C158.502 34.9619 158.011 35.1154 157.312 35.1154C155.96 35.1154 155.151 34.2225 155.151 32.9048C155.151 31.587 155.933 30.5591 157.212 30.5591C158.655 30.5591 159.027 31.8039 159.027 32.6074C159.027 32.7697 159.018 32.8858 159 32.9764H155.915ZM158.255 32.4076C158.265 31.9123 158.047 31.1266 157.149 31.1266C156.331 31.1266 155.987 31.8572 155.923 32.4076H158.255Z" fill="#A7A9AC"/>
<path d="M163.647 31.8305C163.647 31.3695 163.637 31.0093 163.61 30.6491H164.317L164.362 31.3702H164.38C164.599 30.9649 165.106 30.5591 165.833 30.5591C166.441 30.5591 167.385 30.9193 167.385 32.4184V35.0159H166.586V32.4989C166.586 31.7957 166.324 31.2097 165.57 31.2097C165.051 31.2097 164.643 31.5788 164.498 32.0208C164.462 32.1197 164.444 32.2548 164.444 32.3911V35.0159H163.645V31.8305H163.647Z" fill="#A7A9AC"/>
<path d="M175.444 34.8624C175.236 34.9614 174.772 35.1148 174.182 35.1148C172.856 35.1148 171.994 34.2219 171.994 32.8852C171.994 31.5414 172.92 30.5579 174.354 30.5579C174.827 30.5579 175.244 30.6745 175.461 30.7919L175.28 31.3962C175.089 31.2973 174.79 31.1895 174.354 31.1895C173.346 31.1895 172.802 31.939 172.802 32.8408C172.802 33.8516 173.456 34.4743 174.327 34.4743C174.781 34.4743 175.08 34.3653 175.307 34.2663L175.444 34.8624Z" fill="#A7A9AC"/>
<path d="M180.462 30.6491L181.414 33.2288C181.524 33.5173 181.633 33.8604 181.705 34.1216H181.723C181.805 33.8604 181.895 33.5268 182.004 33.2097L182.876 30.6484H183.719L182.521 33.7608C181.95 35.258 181.559 36.0165 181.015 36.4946C180.616 36.8288 180.234 36.9639 180.034 37L179.835 36.3411C180.034 36.279 180.298 36.1515 180.535 35.9537C180.752 35.7825 181.016 35.4755 181.206 35.0691C181.243 34.9885 181.27 34.9251 181.27 34.8794C181.27 34.8351 181.252 34.7716 181.206 34.6727L179.59 30.6484H180.462V30.6491Z" fill="#A7A9AC"/>
<path d="M9.59151 14.8742C10.0745 13.8672 10.8388 12.9794 11.8583 12.3395C12.8778 11.7009 14.0128 11.3984 15.1356 11.3984H21.5531L16.1864 23.4072C15.9535 23.9285 15.9829 24.5531 16.3191 25.0668C16.6547 25.5798 17.2167 25.8595 17.7903 25.8595H29.8336L26.4484 32.1083C26.012 32.9137 25.3606 33.6169 24.5128 34.1198C23.6655 34.6227 22.7334 34.8605 21.8134 34.8605H0L9.59151 14.8742Z" fill="#ED1C24"/>
<path d="M60.8175 10.6165C60.8175 9.50933 61.5921 8.76294 62.6817 8.76294H66.7004C72.1233 8.76294 75.222 12.2285 75.222 17.5706C75.222 22.6241 71.9294 25.8963 66.9422 25.8963H62.7296C61.9308 25.8963 60.8169 25.4638 60.8169 24.0915V10.6165H60.8175ZM64.449 22.5759H66.8944C70.0173 22.5759 71.4458 20.2898 71.4458 17.4019C71.4458 14.3218 69.9931 12.0833 66.6519 12.0833H64.4483V22.5759H64.449Z" fill="white"/>
<path d="M76.6371 10.4957C76.6371 9.29275 77.4116 8.61865 78.4528 8.61865C79.4934 8.61865 80.2685 9.29275 80.2685 10.4957V24.1634C80.2685 25.3658 79.494 26.0411 78.4528 26.0411C77.4116 26.0411 76.6371 25.3664 76.6371 24.1634V10.4957Z" fill="white"/>
<path d="M96.1862 15.7415C97.711 15.7415 98.3165 16.5114 98.3165 18.0523C98.3165 22.6962 95.2656 26.1865 90.4233 26.1865C85.5088 26.1865 82.095 22.3113 82.095 17.33C82.095 12.3254 85.4846 8.47485 90.4233 8.47485C94.0789 8.47485 97.0813 10.1832 97.0813 11.8682C97.0813 12.9031 96.428 13.5524 95.5801 13.5524C93.9341 13.5524 93.5953 11.7959 90.4233 11.7959C87.3973 11.7959 85.8725 14.4187 85.8725 17.33C85.8725 20.2661 87.3488 22.8649 90.4233 22.8649C92.3359 22.8649 94.5396 21.8058 94.5396 19.0625H92.0699C91.0778 19.0625 90.3754 18.365 90.3754 17.3789C90.3754 16.3674 91.1499 15.7421 92.0699 15.7421H96.1862V15.7415Z" fill="white"/>
<path d="M99.8158 10.4957C99.8158 9.29275 100.591 8.61865 101.632 8.61865C102.673 8.61865 103.448 9.29275 103.448 10.4957V24.1634C103.448 25.3658 102.673 26.0411 101.632 26.0411C100.591 26.0411 99.8158 25.3664 99.8158 24.1634V10.4957Z" fill="white"/>
<path d="M108.859 12.0838H106.219C105.058 12.0838 104.573 11.2423 104.573 10.4243C104.573 9.58211 105.178 8.76343 106.219 8.76343H115.129C116.17 8.76343 116.776 9.58211 116.776 10.4243C116.776 11.2423 116.291 12.0838 115.129 12.0838H112.49V24.1636C112.49 25.366 111.715 26.0413 110.674 26.0413C109.633 26.0413 108.858 25.3666 108.858 24.1636V12.0838H108.859Z" fill="white"/>
<path d="M119.341 10.4718C119.752 9.36519 120.696 8.47485 121.931 8.47485C123.214 8.47485 124.11 9.317 124.522 10.4718L129.267 23.563C129.413 23.948 129.461 24.2853 129.461 24.4521C129.461 25.3907 128.686 26.0413 127.79 26.0413C126.774 26.0413 126.265 25.5111 126.023 24.7888L125.297 22.5275H118.566L117.84 24.7654C117.597 25.5111 117.089 26.0413 116.097 26.0413C115.128 26.0413 114.305 25.319 114.305 24.357C114.305 23.9721 114.426 23.6829 114.474 23.563L119.341 10.4718ZM119.607 19.2071H124.207L121.955 12.229H121.907L119.607 19.2071Z" fill="white"/>
<path d="M130.597 10.4957C130.597 9.29275 131.372 8.61865 132.413 8.61865C133.454 8.61865 134.229 9.29275 134.229 10.4957V22.5755H138.538C139.774 22.5755 140.329 23.4893 140.281 24.308C140.257 25.102 139.603 25.8959 138.538 25.8959H132.486C131.3 25.8959 130.597 25.1267 130.597 23.9231V10.4957H130.597Z" fill="white"/>
<path d="M147.068 10.4957C147.068 9.29275 147.844 8.61865 148.885 8.61865C149.926 8.61865 150.7 9.29275 150.7 10.4957V22.5755H155.01C156.245 22.5755 156.801 23.4893 156.753 24.308C156.729 25.102 156.075 25.8959 155.01 25.8959H148.958C147.772 25.8959 147.069 25.1267 147.069 23.9231V10.4957H147.068Z" fill="white"/>
<path d="M162.358 10.4718C162.77 9.36519 163.714 8.47485 164.949 8.47485C166.232 8.47485 167.128 9.317 167.539 10.4718L172.285 23.563C172.43 23.948 172.478 24.2853 172.478 24.4521C172.478 25.3907 171.704 26.0413 170.808 26.0413C169.791 26.0413 169.282 25.5111 169.04 24.7888L168.314 22.5275H161.583L160.857 24.7654C160.615 25.5111 160.106 26.0413 159.114 26.0413C158.145 26.0413 157.322 25.319 157.322 24.357C157.322 23.9721 157.443 23.6829 157.492 23.563L162.358 10.4718ZM162.624 19.2071H167.224L164.973 12.229H164.925L162.624 19.2071Z" fill="white"/>
<path d="M172.959 10.5677C172.959 9.41294 173.758 8.76294 174.872 8.76294H179.52C182.038 8.76294 184.072 10.4472 184.072 12.9984C184.072 14.6827 183.369 15.814 181.82 16.5356V16.5838C183.878 16.8724 185.501 18.5808 185.501 20.6747C185.501 24.0686 183.225 25.8963 179.884 25.8963H174.897C173.784 25.8963 172.96 25.1987 172.96 24.068V10.5677H172.959ZM176.591 15.5496H178.48C179.666 15.5496 180.441 14.8514 180.441 13.6484C180.441 12.5177 179.545 11.94 178.48 11.94H176.591V15.5496ZM176.591 22.7198H179.448C180.756 22.7198 181.725 21.9753 181.725 20.6265C181.725 19.4958 180.852 18.7253 179.158 18.7253H176.592V22.7198H176.591Z" fill="white"/>
<path d="M2.1673 0.00021372H32.0915C62.2224 -0.101884 57.269 36.4109 28.9953 34.8598C35.2125 24.052 41.5324 8.6157 29.0987 8.92326H9.80273C5.62328 8.21682 2.95011 5.41961 2.1673 0.00021372Z" fill="#ED1C24"/>
</svg>
