<svg width="117" height="31" viewBox="0 0 117 31" fill="none" xmlns="http://www.w3.org/2000/svg">
<g clip-path="url(#clip0)">
<path d="M64.4659 31.0041L64.0936 29.6752H60.9678L60.597 31.0041H57.275L60.7259 20.6703H64.3471L67.7922 31.0041H64.4659ZM61.6337 27.3164H63.4321L62.5343 24.1422L61.6337 27.3164Z" fill="white"/>
<path d="M116.997 20.6662H82.3314V31H116.997V20.6662Z" fill="white"/>
<path d="M75.3754 25.6774C76.3052 26.18 76.7696 26.9431 76.7686 27.9665C76.7686 28.9098 76.446 29.6528 75.8007 30.1955C75.1554 30.7382 74.2194 31.0077 72.9927 31.0041H68.4107V20.6662H72.7064C73.9235 20.6662 74.8523 20.9175 75.4928 21.4201C76.1333 21.9228 76.4531 22.6412 76.4522 23.5754C76.4588 24.4705 76.0999 25.1711 75.3754 25.6774ZM72.5274 23.2189H71.5065V24.6066L72.6978 24.5929C73.1417 24.5328 73.3636 24.3075 73.3636 23.91C73.3695 23.8112 73.35 23.7126 73.3068 23.6226C73.2637 23.5326 73.1981 23.4541 73.1159 23.3938C72.9471 23.2703 72.7401 23.2039 72.5274 23.2053V23.2189ZM72.8138 28.4746C73.0397 28.4821 73.2605 28.4085 73.4323 28.2684C73.5127 28.2031 73.5767 28.1215 73.6196 28.0296C73.6624 27.9376 73.6831 27.8377 73.6801 27.7371C73.6801 27.3273 73.4481 27.0828 72.9842 27.0132L71.5136 26.9981V28.4746H72.8138Z" fill="white"/>
<path d="M53.4004 28.1359H56.96V31.0041H50.3047V20.6662H53.4004V28.1359Z" fill="white"/>
<path d="M101.262 0.281372H104.412V10.8214H101.892L98.42 6.00962V10.8214H95.2627V0.281372H97.7885L101.262 5.09998V0.281372Z" fill="white"/>
<path d="M90.5275 0.281372H93.6776V10.8214H90.5275V0.281372Z" fill="white"/>
<path d="M89.581 0.281372V3.20149H86.9764V10.8214H83.8263V3.20149H81.2146V0.281372H89.581Z" fill="white"/>
<path d="M56.0837 0.281372H59.2339V10.8214H56.0837V6.93701H53.3989V10.8214H50.2417V0.281372H53.3989V4.01552H56.0837V0.281372Z" fill="white"/>
<path d="M70.4397 9.47333C69.3085 10.5332 67.922 11.0631 66.2801 11.0631C64.6382 11.0631 63.2517 10.5332 62.1205 9.47333C60.9903 8.41527 60.4252 7.10773 60.4252 5.55069C60.4252 3.99366 60.9907 2.68611 62.1219 1.62806C63.2522 0.569094 64.6382 0.0396118 66.2801 0.0396118C67.922 0.0396118 69.3085 0.569094 70.4397 1.62806C71.5709 2.68794 72.1369 3.99548 72.1379 5.55069C72.1389 7.10591 71.5728 8.41345 70.4397 9.47333ZM64.3471 7.37543C64.724 7.74403 65.208 7.99644 65.7368 8.10007C66.2656 8.20369 66.8148 8.15379 67.3135 7.95679C67.8122 7.7598 68.2376 7.42475 68.5348 6.9949C68.832 6.56504 68.9872 6.06009 68.9806 5.54523C68.9889 5.20205 68.9252 4.86076 68.7932 4.5414C68.6613 4.22204 68.4637 3.93105 68.2122 3.68555C67.9607 3.44004 67.6603 3.24497 67.3286 3.11178C66.9969 2.97859 66.6407 2.90998 66.2808 2.90998C65.9209 2.90998 65.5647 2.97859 65.233 3.11178C64.9013 3.24497 64.6009 3.44004 64.3494 3.68555C64.0979 3.93105 63.9003 4.22204 63.7684 4.5414C63.6364 4.86076 63.5727 5.20205 63.581 5.54523C63.5708 5.88403 63.6335 6.22123 63.7653 6.53601C63.8971 6.85079 64.0951 7.13648 64.3471 7.37543Z" fill="white"/>
<path d="M117 4.6028V5.85253C117 7.35766 116.492 8.60238 115.476 9.58668C114.461 10.571 113.124 11.0627 111.467 11.0618C109.747 11.0627 108.34 10.5382 107.247 9.48834C106.154 8.43848 105.606 7.13094 105.602 5.56571C105.602 4.00048 106.15 2.68793 107.245 1.62805C108.34 0.568173 109.707 0.0386909 111.348 0.0396014C112.336 0.0294443 113.311 0.257287 114.182 0.702024C115.011 1.11941 115.711 1.73737 116.211 2.49398L113.528 3.96087C113.085 3.31711 112.38 2.99569 111.413 2.9966C110.622 2.9966 109.983 3.23744 109.494 3.71912C109.005 4.2008 108.761 4.82316 108.76 5.58619C108.748 6.27088 108.988 6.93788 109.438 7.47102C109.887 8.00825 110.589 8.27686 111.543 8.27686C112.637 8.27686 113.368 7.90536 113.737 7.16235H111.38V4.6028H117Z" fill="white"/>
<path d="M76.8259 11.0631C75.6288 11.0631 74.6289 10.8246 73.8261 10.3474C73.0604 9.91079 72.4881 9.22262 72.2166 8.41207L74.9157 6.92196C75.2833 7.81521 75.9462 8.26183 76.9046 8.26183C77.6206 8.26183 77.9785 8.08018 77.9785 7.7155C77.9796 7.61922 77.9523 7.52458 77.8998 7.44234C77.8234 7.34555 77.7188 7.27239 77.5991 7.232C77.4511 7.17191 77.3222 7.1241 77.2125 7.08859C77.1022 7.05445 76.9103 7.00118 76.6397 6.93152C76.3691 6.86187 76.16 6.80587 76.024 6.76489C73.8227 6.13297 72.725 5.0039 72.7307 3.37766C72.7194 2.92629 72.8119 2.47804 73.0016 2.06441C73.1913 1.65077 73.4737 1.28179 73.8289 0.98338C74.5525 0.354193 75.5095 0.0395989 76.6999 0.0395989C77.5838 0.0267349 78.4545 0.245467 79.2171 0.671973C79.9569 1.0915 80.5311 1.73185 80.8509 2.49398L78.2305 3.96087C77.9251 3.21786 77.4201 2.84636 76.7156 2.84636C76.4949 2.832 76.2754 2.88771 76.0913 3.00479C76.0248 3.05002 75.9706 3.10988 75.9335 3.17931C75.8963 3.24873 75.8773 3.32567 75.878 3.40361C75.8799 3.51436 75.9162 3.62209 75.9822 3.71323C76.0481 3.80437 76.1409 3.87485 76.2488 3.91579C76.7119 4.1083 77.1908 4.26407 77.6807 4.38154C78.1179 4.50329 78.548 4.64689 78.9694 4.81177C79.3421 4.96679 79.6967 5.1586 80.0276 5.38405C80.3891 5.62225 80.6757 5.94996 80.8566 6.33193C81.0501 6.7631 81.1443 7.22886 81.133 7.69775C81.133 8.77128 80.7459 9.6017 79.9717 10.189C79.1975 10.7763 78.1489 11.0677 76.8259 11.0631Z" fill="white"/>
<path d="M43.3329 20.6662V31H21.6657V20.6662H10.8336V31H0V0H10.8336V10.3338H21.6657V0H32.4993V20.6662H43.3329Z" fill="white"/>
</g>
<defs>
<clipPath id="clip0">
<rect width="117" height="31" fill="white"/>
</clipPath>
</defs>
</svg>
