<svg width="35" height="35" viewBox="0 0 35 35" fill="none" xmlns="http://www.w3.org/2000/svg">
<g clip-path="url(#clip0)">
<path d="M34.1542 27.8543C33.4619 28.6856 32.4361 29.1664 31.3542 29.1668H3.64587C2.56402 29.1664 1.53822 28.6856 0.845879 27.8543L14.2188 16.7126L15.6042 17.6606C16.7455 18.4481 18.2547 18.4481 19.3959 17.6606L20.7814 16.7126L34.1542 27.8543Z" fill="#1E88E5"/>
<path d="M34.3583 7.42293L20.7813 16.7125L19.3958 17.6604C18.2546 18.4479 16.7454 18.4479 15.6042 17.6604L14.2187 16.7125L0.641754 7.4083C1.32494 6.42317 2.44705 5.83487 3.64594 5.8333H31.3542C32.5585 5.82694 33.6861 6.42358 34.3583 7.42293Z" fill="#64B5F6"/>
<path d="M14.2188 16.7126L0.845874 27.8542C0.298521 27.2 -0.000960584 26.3739 6.4805e-05 25.5209V9.47925C-0.00437855 8.7394 0.219771 8.01616 0.641753 7.40845L14.2188 16.7126Z" fill="#2196F3"/>
<path d="M35 9.47934V25.521C35.0009 26.374 34.7015 27.2001 34.1542 27.8543L20.7813 16.7126L34.3583 7.4231C34.7782 8.02643 35.0022 8.74427 35 9.47934Z" fill="#2196F3"/>
</g>
<defs>
<clipPath id="clip0">
<rect width="35" height="35" fill="white"/>
</clipPath>
</defs>
</svg>
